<?xml version="1.0" standalone="no"?>
<!DOCTYPE svg PUBLIC "-//W3C//DTD SVG 20010904//EN"
 "http://www.w3.org/TR/2001/REC-SVG-20010904/DTD/svg10.dtd">
<svg version="1.0" xmlns="http://www.w3.org/2000/svg"
 width="512.000000pt" height="512.000000pt" viewBox="0 0 512.000000 512.000000"
 preserveAspectRatio="xMidYMid meet">

<g transform="translate(0.000000,512.000000) scale(0.100000,-0.100000)"
fill="#000000" stroke="none">
<path d="M2940 5114 c-14 -2 -59 -9 -100 -15 -87 -13 -231 -57 -328 -100 -168
-75 -362 -234 -479 -391 l-67 -89 -55 7 c-74 8 -234 -12 -338 -42 -336 -97
-615 -363 -719 -686 l-19 -57 -55 -7 c-30 -4 -92 -17 -138 -30 -301 -87 -530
-323 -614 -632 -27 -102 -30 -314 -5 -415 80 -321 322 -570 642 -659 77 -21
97 -22 495 -23 456 0 446 -1 504 62 82 89 51 254 -57 304 -39 17 -70 19 -402
19 -281 0 -374 4 -423 15 -201 48 -351 209 -382 411 -35 227 108 461 327 535
57 20 89 23 198 24 101 0 137 4 160 17 61 33 89 83 111 200 30 159 99 285 217
394 158 146 371 205 594 164 127 -23 195 11 261 133 177 323 519 506 872 467
120 -13 208 -39 310 -90 191 -96 343 -260 420 -454 28 -69 37 -104 69 -267 14
-69 50 -123 99 -148 20 -10 75 -26 121 -35 204 -41 372 -157 471 -325 172
-292 108 -655 -155 -879 -56 -49 -183 -115 -265 -139 -46 -13 -133 -17 -520
-22 -503 -6 -493 -5 -547 -63 -97 -103 -49 -280 85 -318 50 -14 846 -13 949 1
430 58 779 358 897 771 105 366 15 749 -243 1029 -116 127 -270 227 -436 285
-85 30 -90 34 -98 65 -61 242 -169 432 -346 610 -193 193 -428 317 -684 359
-70 11 -289 21 -327 14z"/>
<path d="M2066 1882 c-137 -372 -251 -683 -254 -689 -3 -10 44 -13 213 -13
l217 0 -5 -22 c-25 -103 -238 -1111 -235 -1113 2 -1 215 340 474 759 l470 761
-248 3 c-155 1 -248 6 -248 12 0 6 86 182 191 393 106 210 213 428 240 485
l48 102 -307 0 -307 0 -249 -678z"/>
</g>
</svg>
