<?xml version="1.0" encoding="iso-8859-1"?>
<!-- Generator: Adobe Illustrator 19.0.0, SVG Export Plug-In . SVG Version: 6.00 Build 0)  -->
<svg version="1.1" id="Capa_1" xmlns="http://www.w3.org/2000/svg" xmlns:xlink="http://www.w3.org/1999/xlink" x="0px" y="0px"
	 viewBox="0 0 480 480" style="enable-background:new 0 0 480 480;" xml:space="preserve">
<g>
	<g>
		<path d="M118.944,348.032l-32-56c-2.84-4.984-11.048-4.984-13.888,0l-32,56c-1.408,2.464-1.408,5.48,0,7.936l32,56
			C74.48,414.464,77.136,416,80,416s5.52-1.536,6.944-4.032l32-56C120.352,353.504,120.352,350.488,118.944,348.032z M80,391.872
			L57.208,352L80,312.128L102.792,352L80,391.872z"/>
	</g>
</g>
<g>
	<g>
		<path d="M230.944,412.032l-32-56c-2.84-4.984-11.048-4.984-13.888,0l-32,56c-1.408,2.464-1.408,5.48,0,7.936l32,56
			c1.424,2.496,4.08,4.032,6.944,4.032s5.52-1.536,6.944-4.032l32-56C232.352,417.504,232.352,414.488,230.944,412.032z
			 M192,455.872L169.208,416L192,376.128L214.792,416L192,455.872z"/>
	</g>
</g>
<g>
	<g>
		<path d="M342.944,348.032l-32-56c-2.84-4.984-11.048-4.984-13.888,0l-32,56c-1.408,2.464-1.408,5.48,0,7.936l32,56
			c1.424,2.496,4.08,4.032,6.944,4.032s5.52-1.536,6.944-4.032l32-56C344.352,353.504,344.352,350.488,342.944,348.032z
			 M304,391.872L281.208,352L304,312.128L326.792,352L304,391.872z"/>
	</g>
</g>
<g>
	<g>
		<path d="M454.944,412.032l-32-56c-2.84-4.984-11.048-4.984-13.888,0l-32,56c-1.408,2.464-1.408,5.48,0,7.936l32,56
			c1.424,2.496,4.08,4.032,6.944,4.032s5.52-1.536,6.944-4.032l32-56C456.352,417.504,456.352,414.488,454.944,412.032z
			 M416,455.872L393.208,416L416,376.128L438.792,416L416,455.872z"/>
	</g>
</g>
<g>
	<g>
		<path d="M390.24,72.952C376.04,30.384,327.304,0,272,0c-51.352,0-94.76,28.784-109.92,72.216
			c-32.712,2.032-60.184,17.392-71.312,39.736c-0.128,0-0.24,0.008-0.36,0.008L88,112c-48.52,0-88,35.888-88,80s39.48,80,88,80
			h280.272C428.832,269.928,480,222.304,480,168C480,121.504,443.352,83.016,390.24,72.952z M368,256H88c-39.704,0-72-28.712-72-64
			c0-35.288,32.296-64,72-64l2.76-0.04c0.872-0.016,1.776-0.04,2.64-0.04c0.696,0,1.376,0.016,2.008,0.064
			c3.56,0.296,6.88-1.872,8.112-5.232c7.312-20.048,33.864-34.336,64.592-34.744c3.528-0.048,6.616-2.408,7.584-5.808
			C186.992,42.6,225.696,16,272,16c49.496,0,94.32,28.392,104.264,66.04c0.816,3.08,3.376,5.384,6.52,5.864
			C430.608,95.208,464,128.144,464,168C464,213.92,419.912,254.224,368,256z"/>
	</g>
</g>
<g>
</g>
<g>
</g>
<g>
</g>
<g>
</g>
<g>
</g>
<g>
</g>
<g>
</g>
<g>
</g>
<g>
</g>
<g>
</g>
<g>
</g>
<g>
</g>
<g>
</g>
<g>
</g>
<g>
</g>
</svg>
