<?xml version="1.0" standalone="no"?>
<!DOCTYPE svg PUBLIC "-//W3C//DTD SVG 20010904//EN"
 "http://www.w3.org/TR/2001/REC-SVG-20010904/DTD/svg10.dtd">
<svg version="1.0" xmlns="http://www.w3.org/2000/svg"
 width="980.000000pt" height="982.000000pt" viewBox="0 0 980.000000 982.000000"
 preserveAspectRatio="xMidYMid meet">

<g transform="translate(0.000000,982.000000) scale(0.100000,-0.100000)"
fill="#000000" stroke="none">
<path d="M4520 9781 c-85 -15 -191 -38 -235 -51 -595 -167 -1159 -574 -1535
-1105 -116 -165 -93 -154 -268 -117 -254 54 -321 62 -544 62 -372 0 -624 -53
-888 -185 -698 -350 -1133 -1217 -1035 -2057 54 -465 236 -850 560 -1187 277
-287 620 -491 985 -583 154 -38 240 -46 607 -54 273 -6 313 -9 317 -23 3 -9
21 -72 40 -141 73 -261 169 -453 338 -672 329 -426 895 -747 1393 -789 167
-13 3111 -13 3269 1 432 38 948 257 1322 561 529 429 888 1087 943 1724 59
680 -122 1291 -548 1850 -94 123 -294 326 -421 427 -226 180 -503 331 -765
417 -223 73 -338 93 -678 114 l-180 12 -49 130 c-327 873 -1062 1515 -1908
1666 -87 16 -170 22 -340 25 -213 3 -234 2 -380 -25z m541 -391 c225 -22 395
-72 614 -179 235 -116 401 -237 596 -437 197 -203 348 -432 454 -687 19 -47
35 -102 35 -122 0 -44 -23 -60 -154 -106 -330 -116 -566 -240 -812 -425 -219
-164 -401 -345 -584 -579 -43 -55 -92 -113 -109 -129 l-30 -29 -143 31 c-209
46 -254 52 -453 59 -337 11 -645 -41 -917 -155 -302 -126 -574 -359 -780 -667
-191 -287 -296 -585 -328 -935 -6 -69 -12 -125 -13 -126 -7 -5 -589 18 -659
26 -154 18 -392 99 -541 184 -195 112 -376 273 -499 446 -126 178 -248 442
-295 638 -22 95 -26 135 -30 355 -6 267 0 338 42 478 90 299 215 509 435 730
185 185 337 283 551 352 161 53 229 62 459 62 194 -1 227 -3 340 -28 69 -14
192 -47 274 -72 82 -25 173 -48 202 -51 98 -12 154 39 324 296 161 243 337
437 550 610 121 96 293 211 395 262 153 77 430 164 610 192 109 17 326 20 466
6z m2502 -1841 c501 -62 986 -322 1317 -705 433 -502 607 -1190 468 -1854
-155 -746 -618 -1299 -1315 -1574 -51 -20 -163 -56 -250 -81 l-156 -45 -1641
0 c-909 0 -1698 5 -1768 10 -160 12 -266 45 -473 149 -168 85 -276 157 -384
257 -346 321 -547 844 -502 1309 26 267 101 475 254 705 281 420 670 642 1172
666 213 11 434 -22 690 -102 180 -57 229 -63 281 -36 57 30 130 110 229 252
208 298 492 577 746 735 341 211 794 343 1132 329 64 -2 154 -9 200 -15z"/>
<path d="M5255 2646 c-40 -18 -164 -149 -408 -434 -228 -266 -338 -399 -513
-617 -211 -264 -254 -324 -254 -360 0 -67 58 -158 121 -191 47 -24 141 -16
459 36 167 27 306 48 308 45 7 -6 -84 -126 -250 -327 -296 -359 -408 -504
-419 -540 -26 -82 21 -192 97 -228 48 -24 130 -26 178 -6 35 15 135 124 387
426 426 510 746 913 751 944 11 72 -38 173 -102 210 -50 30 -138 25 -445 -24
-143 -22 -279 -40 -302 -38 l-43 3 261 315 c378 456 429 525 429 586 0 79 -49
155 -124 190 -57 27 -87 29 -131 10z"/>
<path d="M1960 2434 c-47 -20 -491 -467 -514 -518 -22 -48 -17 -130 11 -179
29 -49 93 -89 151 -95 82 -7 129 26 360 252 111 110 216 220 232 245 102 154
-72 368 -240 295z"/>
<path d="M3590 2428 c-64 -32 -479 -448 -508 -509 -36 -74 -23 -150 36 -213
66 -71 159 -84 238 -35 66 42 475 454 497 501 25 53 22 112 -9 169 -54 98
-161 135 -254 87z"/>
<path d="M6872 2439 c-32 -12 -435 -411 -488 -483 -39 -51 -44 -65 -44 -110 0
-106 77 -194 178 -204 83 -8 129 25 369 263 116 115 221 226 232 245 26 44 27
120 2 176 -42 92 -164 148 -249 113z"/>
<path d="M8495 2428 c-61 -32 -480 -454 -504 -509 -26 -55 -26 -102 -2 -155
33 -74 109 -123 187 -124 63 0 117 42 350 275 257 256 282 299 238 403 -46
111 -171 162 -269 110z"/>
<path d="M1525 984 c-97 -65 -447 -422 -487 -497 -25 -45 -23 -122 5 -172 49
-87 168 -129 253 -89 45 21 471 439 503 494 16 26 21 52 21 103 0 65 -1 69
-42 113 -55 60 -85 74 -156 74 -47 0 -67 -5 -97 -26z"/>
<path d="M3172 995 c-52 -23 -467 -440 -491 -495 -50 -110 -6 -230 101 -275
94 -39 154 -16 296 114 142 130 350 355 368 398 37 86 -5 207 -85 250 -52 27
-137 31 -189 8z"/>
<path d="M6427 981 c-60 -39 -386 -365 -450 -451 -49 -64 -49 -65 -45 -132 3
-56 8 -73 34 -105 68 -85 173 -106 258 -52 66 42 468 445 489 491 9 20 17 60
17 91 0 62 -22 101 -83 151 -32 26 -48 31 -105 34 -61 3 -71 1 -115 -27z"/>
<path d="M8072 990 c-76 -47 -465 -442 -488 -496 -17 -40 -18 -121 -3 -161 25
-66 109 -122 185 -123 77 0 132 39 327 235 227 227 266 275 274 342 3 30 0 66
-7 87 -16 48 -66 105 -107 122 -49 21 -142 18 -181 -6z"/>
</g>
</svg>
